<svg id="Group_14" data-name="Group 14" xmlns="http://www.w3.org/2000/svg" xmlns:xlink="http://www.w3.org/1999/xlink" width="68.657" height="38.501" viewBox="0 0 68.657 38.501">
  <defs>
    <clipPath id="clip-path">
      <rect id="Rectangle_9" data-name="Rectangle 9" width="68.657" height="38.501" fill="#672b30"/>
    </clipPath>
    <clipPath id="clip-path-2">
      <path id="Path_10" data-name="Path 10" d="M42.482,18.95h0ZM19.773,16.827a2.032,2.032,0,0,0-.742,1.569,2.136,2.136,0,0,0,.7,1.613,2.562,2.562,0,0,0,1.836.658,2.644,2.644,0,0,0,1.833-.614,2.056,2.056,0,0,0,.679-1.591,2.143,2.143,0,0,0-.71-1.634,2.492,2.492,0,0,0-1.769-.659,2.645,2.645,0,0,0-1.825.659m30.014-2.245a16.078,16.078,0,0,1-2.839,3.712L45.233,20.1h5.455v2.683h-10.6V21.4l.01-.011a2.449,2.449,0,0,1-.762-1.05l-5.022,1.484A11.679,11.679,0,0,0,45.385,29.9c10.037,0,16.186-11.569,5.15-17.77a7.166,7.166,0,0,1-.749,2.45M20.252,10.335a1.7,1.7,0,0,0-.476,1.244,1.748,1.748,0,0,0,.5,1.269,1.675,1.675,0,0,0,1.24.512,1.648,1.648,0,0,0,1.239-.5,1.788,1.788,0,0,0,.487-1.3,1.641,1.641,0,0,0-.49-1.233,1.772,1.772,0,0,0-1.291-.475,1.609,1.609,0,0,0-1.21.486M1.738,7.346,0,10.155H3.247V23.1H6.232V7.346Zm56.583,0v2.808H64.93L58.355,23.448l3.188.049L68.657,8.915V7.346ZM21.565,0A11.667,11.667,0,0,0,9.932,11.632V18.27A11.631,11.631,0,0,0,32.579,22l-5.765-1.847a4.908,4.908,0,0,1-.454,1.015,4.4,4.4,0,0,1-1.829,1.741A6.421,6.421,0,0,1,21.6,23.5a6.843,6.843,0,0,1-3.035-.563,4.274,4.274,0,0,1-1.8-1.7,4.968,4.968,0,0,1-.677-2.579,4.751,4.751,0,0,1,.542-2.264,5.486,5.486,0,0,1,1.628-1.825,5.189,5.189,0,0,1-1.065-1.529,4.178,4.178,0,0,1-.358-1.708,4.322,4.322,0,0,1,.6-2.242A4.076,4.076,0,0,1,19.1,7.515a5.226,5.226,0,0,1,2.476-.563,5.055,5.055,0,0,1,2.432.566,4.152,4.152,0,0,1,1.657,1.613,4.36,4.36,0,0,1,.56,1.584l6.4-2.693A11.678,11.678,0,0,0,21.565,0ZM45.385,0C34.444,0,30.444,13.7,40.751,17.864a20.97,20.97,0,0,0,2.368.439l1.7-1.73A13.813,13.813,0,0,0,47.1,13.784a4.082,4.082,0,0,0,.567-1.906,1.974,1.974,0,0,0-.585-1.463,2.081,2.081,0,0,0-1.512-.574,2.015,2.015,0,0,0-1.562.7,2.917,2.917,0,0,0-.663,1.9H40.51a5.615,5.615,0,0,1,1.554-3.9A5.479,5.479,0,0,1,48.218,7.7a4.385,4.385,0,0,1,1.7,1.693,4.633,4.633,0,0,1,.6,1.72c1.365-.8,3.982-2.321,5.817-3.381A11.676,11.676,0,0,0,45.385,0Z" fill="#672b30"/>
    </clipPath>
  </defs>
  <g id="Group_9" data-name="Group 9" transform="translate(0 0)">
    <g id="Group_8" data-name="Group 8" clip-path="url(#clip-path)">
      <path id="Path_9" data-name="Path 9" d="M21.6,16.168a2.648,2.648,0,0,0-1.825.658,2.034,2.034,0,0,0-.742,1.569,2.132,2.132,0,0,0,.7,1.612,2.559,2.559,0,0,0,1.836.658,2.644,2.644,0,0,0,1.832-.614,2.055,2.055,0,0,0,.681-1.591,2.148,2.148,0,0,0-.71-1.635,2.5,2.5,0,0,0-1.77-.658m-.136-6.32a1.61,1.61,0,0,0-1.21.486,1.7,1.7,0,0,0-.476,1.244,1.746,1.746,0,0,0,.5,1.269,1.672,1.672,0,0,0,1.24.513,1.653,1.653,0,0,0,1.24-.5,1.79,1.79,0,0,0,.486-1.3,1.643,1.643,0,0,0-.49-1.233,1.775,1.775,0,0,0-1.291-.475m21.02,9.1h0Zm8.054-6.819c11.036,6.2,4.886,17.77-5.151,17.77a11.677,11.677,0,0,1-11.074-8.083l5.02-1.484a2.46,2.46,0,0,0,.762,1.05l-.01.011v1.391h10.6V20.1H45.233l1.714-1.809a16.038,16.038,0,0,0,2.839-3.712,7.155,7.155,0,0,0,.75-2.45M45.385,0h0A11.678,11.678,0,0,1,56.342,7.737c-1.836,1.06-4.453,2.585-5.818,3.381a4.638,4.638,0,0,0-.6-1.72,4.38,4.38,0,0,0-1.7-1.693,5.476,5.476,0,0,0-6.154.834,5.614,5.614,0,0,0-1.554,3.9h2.832a2.911,2.911,0,0,1,.664-1.9,2.014,2.014,0,0,1,1.561-.7,2.079,2.079,0,0,1,1.512.575,1.971,1.971,0,0,1,.585,1.462,4.082,4.082,0,0,1-.568,1.906,13.78,13.78,0,0,1-2.282,2.789l-1.7,1.729a20.78,20.78,0,0,1-2.367-.439C30.443,13.7,34.444,0,45.385,0M1.738,7.346H6.232V23.1H3.247V10.155H0Zm56.583,0H68.657V8.915L61.543,23.5l-3.188-.049L64.93,10.155H58.321ZM21.565,0h0A11.678,11.678,0,0,1,32.62,8.022l-6.395,2.693a4.379,4.379,0,0,0-.56-1.584,4.156,4.156,0,0,0-1.657-1.613,5.055,5.055,0,0,0-2.432-.566,5.232,5.232,0,0,0-2.476.563,4.072,4.072,0,0,0-1.668,1.573,4.324,4.324,0,0,0-.6,2.242,4.189,4.189,0,0,0,.358,1.708,5.189,5.189,0,0,0,1.065,1.529,5.486,5.486,0,0,0-1.628,1.825,4.752,4.752,0,0,0-.541,2.264,4.968,4.968,0,0,0,.676,2.579,4.28,4.28,0,0,0,1.8,1.7A6.849,6.849,0,0,0,21.6,23.5a6.412,6.412,0,0,0,2.929-.585,4.41,4.41,0,0,0,1.829-1.741,4.871,4.871,0,0,0,.454-1.015L32.579,22A11.631,11.631,0,0,1,9.933,18.27V11.632A11.667,11.667,0,0,1,21.565,0" transform="translate(0 0)" fill="#672b30"/>
    </g>
  </g>
  <g id="Group_11" data-name="Group 11">
    <g id="Group_10" data-name="Group 10" clip-path="url(#clip-path-2)">
      <rect id="Rectangle_10" data-name="Rectangle 10" width="68.657" height="29.903" transform="translate(0 0)" fill="#672b30"/>
    </g>
  </g>
  <g id="Group_13" data-name="Group 13" transform="translate(0 0)">
    <g id="Group_12" data-name="Group 12" clip-path="url(#clip-path)">
      <path id="Path_11" data-name="Path 11" d="M27.01,47.035a2.391,2.391,0,0,0-.284.03,1.86,1.86,0,0,0-.289.067.307.307,0,0,0-.19.165.636.636,0,0,0-.048.248v3.437a1.7,1.7,0,0,1-.109.571,1.65,1.65,0,0,1-.317.54,1.724,1.724,0,0,1-.576.434,1.79,1.79,0,0,1-.762.155,1.557,1.557,0,0,1-1.083-.375,1.287,1.287,0,0,1-.416-1.008.864.864,0,0,1,.143-.493.468.468,0,0,1,.417-.215.566.566,0,0,1,.395.137.47.47,0,0,1,.149.362.7.7,0,0,1-.053.261,1.526,1.526,0,0,1-.119.233c-.041.062-.088.136-.139.221a1,1,0,0,0-.11.229.732.732,0,0,0,.269.237,1.01,1.01,0,0,0,.492.1.78.78,0,0,0,.78-.5,2.005,2.005,0,0,0,.129-.523,5.433,5.433,0,0,0,.039-.694V47.585a.521.521,0,0,0-.048-.238.406.406,0,0,0-.194-.17,1.1,1.1,0,0,0-.316-.1,2.671,2.671,0,0,0-.313-.044v-.293H27.01Z" transform="translate(-7.071 -14.411)" fill="#672b30"/>
      <path id="Path_12" data-name="Path 12" d="M34.378,51.187a3.262,3.262,0,0,0-.039-.488,1.446,1.446,0,0,0-.124-.435.828.828,0,0,0-.258-.305.7.7,0,0,0-.421-.119.876.876,0,0,0-.714.356,1.667,1.667,0,0,0-.31.992Zm.912,1.531a2.066,2.066,0,0,1-.681.768,1.711,1.711,0,0,1-.979.286,2,2,0,0,1-.854-.172,1.682,1.682,0,0,1-.6-.464,1.978,1.978,0,0,1-.354-.686,2.866,2.866,0,0,1-.118-.827,2.42,2.42,0,0,1,.126-.77,2.155,2.155,0,0,1,.365-.679,1.786,1.786,0,0,1,.58-.467,1.675,1.675,0,0,1,.775-.177,1.863,1.863,0,0,1,.759.139,1.364,1.364,0,0,1,.512.38,1.517,1.517,0,0,1,.28.538,2.345,2.345,0,0,1,.092.673v.27H32.511a3.109,3.109,0,0,0,.077.719,1.724,1.724,0,0,0,.24.569,1.148,1.148,0,0,0,.418.374,1.309,1.309,0,0,0,.616.137,1.132,1.132,0,0,0,.63-.172A1.675,1.675,0,0,0,35,52.542Z" transform="translate(-9.773 -15.27)" fill="#672b30"/>
      <path id="Path_13" data-name="Path 13" d="M46.581,49.946a.845.845,0,0,0-.369.144.713.713,0,0,0-.287.379c-.137.4-.265.778-.387,1.135s-.257.759-.405,1.206c-.049.141-.1.295-.149.458s-.095.319-.137.468h-.353l-1.076-2.955-1.09,2.955h-.336q-.305-.906-.6-1.8t-.516-1.552a.545.545,0,0,0-.248-.3.9.9,0,0,0-.356-.131v-.268h1.8v.284a1.261,1.261,0,0,0-.291.045c-.105.026-.158.071-.158.133a.441.441,0,0,0,.014.07c.01.035.022.074.035.114.088.285.185.6.3.955s.252.807.427,1.37l1.03-2.888h.4l1.038,2.836q.174-.542.347-1.05t.3-.954c.019-.071.037-.135.055-.194a.6.6,0,0,0,.027-.173.172.172,0,0,0-.066-.131.557.557,0,0,0-.16-.093.839.839,0,0,0-.177-.049.939.939,0,0,0-.14-.017v-.259h1.535Z" transform="translate(-12.416 -15.319)" fill="#672b30"/>
      <path id="Path_14" data-name="Path 14" d="M56.993,51.187a3.173,3.173,0,0,0-.039-.488,1.446,1.446,0,0,0-.124-.435.828.828,0,0,0-.258-.305.7.7,0,0,0-.421-.119.876.876,0,0,0-.714.356,1.667,1.667,0,0,0-.31.992Zm.912,1.531a2.066,2.066,0,0,1-.681.768,1.711,1.711,0,0,1-.979.286,2,2,0,0,1-.854-.172,1.682,1.682,0,0,1-.6-.464,1.978,1.978,0,0,1-.354-.686,2.866,2.866,0,0,1-.118-.827,2.42,2.42,0,0,1,.126-.77,2.155,2.155,0,0,1,.365-.679,1.787,1.787,0,0,1,.58-.467,1.675,1.675,0,0,1,.775-.177,1.863,1.863,0,0,1,.759.139,1.364,1.364,0,0,1,.512.38,1.517,1.517,0,0,1,.28.538,2.345,2.345,0,0,1,.092.673v.27H55.126a3.109,3.109,0,0,0,.077.719,1.725,1.725,0,0,0,.24.569,1.148,1.148,0,0,0,.418.374,1.309,1.309,0,0,0,.616.137,1.132,1.132,0,0,0,.63-.172,1.675,1.675,0,0,0,.512-.615Z" transform="translate(-16.746 -15.27)" fill="#672b30"/>
      <path id="Path_15" data-name="Path 15" d="M65.481,52.686H63.516v-.268l.2-.018a.91.91,0,0,0,.176-.031.3.3,0,0,0,.17-.128.457.457,0,0,0,.057-.24V47.337a.62.62,0,0,0-.063-.275.538.538,0,0,0-.166-.2.83.83,0,0,0-.269-.091,2.615,2.615,0,0,0-.314-.049v-.268l1.524-.092.057.062v5.53a.462.462,0,0,0,.053.234.327.327,0,0,0,.169.141.89.89,0,0,0,.176.062,1.273,1.273,0,0,0,.2.029Z" transform="translate(-19.518 -14.293)" fill="#672b30"/>
      <path id="Path_16" data-name="Path 16" d="M73.765,51.688a1.022,1.022,0,0,1,.257.339,1.1,1.1,0,0,1,.089.468,1.151,1.151,0,0,1-.417.915,1.612,1.612,0,0,1-1.079.354,1.582,1.582,0,0,1-.645-.13,1.825,1.825,0,0,1-.421-.237l-.081.266h-.31l-.042-1.4H71.4a1.618,1.618,0,0,0,.138.374,1.869,1.869,0,0,0,.255.386,1.4,1.4,0,0,0,.38.306,1.007,1.007,0,0,0,.5.122.908.908,0,0,0,.6-.178.631.631,0,0,0,.211-.512.613.613,0,0,0-.067-.3.655.655,0,0,0-.2-.218,1.568,1.568,0,0,0-.329-.17q-.2-.075-.435-.147a4.385,4.385,0,0,1-.425-.158,1.76,1.76,0,0,1-.4-.234,1.138,1.138,0,0,1-.292-.351,1,1,0,0,1-.114-.489,1.1,1.1,0,0,1,.367-.836,1.381,1.381,0,0,1,.982-.342,2.033,2.033,0,0,1,.482.061,1.667,1.667,0,0,1,.4.147l.093-.225h.293l.059,1.3h-.285a1.282,1.282,0,0,0-.367-.7.953.953,0,0,0-.686-.27.761.761,0,0,0-.523.169.524.524,0,0,0-.19.407.67.67,0,0,0,.063.306.547.547,0,0,0,.19.208,1.525,1.525,0,0,0,.307.154c.122.048.275.1.456.16a3.691,3.691,0,0,1,.506.2,1.62,1.62,0,0,1,.392.252" transform="translate(-21.926 -15.263)" fill="#672b30"/>
      <rect id="Rectangle_11" data-name="Rectangle 11" width="10.409" height="0.484" transform="translate(54.844 36.249)" fill="#672b30"/>
      <rect id="Rectangle_12" data-name="Rectangle 12" width="10.409" height="0.484" transform="translate(3.403 36.249)" fill="#672b30"/>
    </g>
  </g>
</svg>
