<svg id="facebook" xmlns="http://www.w3.org/2000/svg" width="25.213" height="25.213" viewBox="0 0 25.213 25.213">
  <g id="Group_65" data-name="Group 65">
    <g id="Group_64" data-name="Group 64">
      <path id="Path_26" data-name="Path 26" d="M210.6,153.564v1.146h-1.146v1.719H210.6v5.157h2.292v-5.157h1.524l.195-1.719h-1.719v-1c0-.464.046-.711.762-.711h.957v-1.725h-1.536C211.242,151.272,210.6,152.132,210.6,153.564Z" transform="translate(-199.14 -143.823)" fill="#333"/>
      <path id="Path_27" data-name="Path 27" d="M12.607,0A12.607,12.607,0,1,0,25.213,12.607,12.607,12.607,0,0,0,12.607,0Zm0,24.067A11.461,11.461,0,1,1,24.067,12.607,11.461,11.461,0,0,1,12.607,24.067Z" fill="#333"/>
    </g>
  </g>
</svg>
