<svg id="instagram" xmlns="http://www.w3.org/2000/svg" width="25.213" height="25.213" viewBox="0 0 25.213 25.213">
  <g id="Group_67" data-name="Group 67">
    <g id="Group_66" data-name="Group 66">
      <path id="Path_28" data-name="Path 28" d="M12.607,0A12.607,12.607,0,1,0,25.213,12.607,12.607,12.607,0,0,0,12.607,0Zm0,24.067A11.461,11.461,0,1,1,24.067,12.607,11.461,11.461,0,0,1,12.607,24.067Z" fill="#333"/>
      <path id="Path_29" data-name="Path 29" d="M148.805,139.636h-6.876a2.292,2.292,0,0,0-2.292,2.292V148.8a2.292,2.292,0,0,0,2.292,2.292h6.876A2.292,2.292,0,0,0,151.1,148.8v-6.876A2.292,2.292,0,0,0,148.805,139.636Zm-1.146,1.719h1.719v1.719h-1.719Zm-2.292,1.719a2.292,2.292,0,1,1-2.292,2.292A2.292,2.292,0,0,1,145.367,143.074Zm4.584,5.73a1.146,1.146,0,0,1-1.146,1.146h-6.876a1.146,1.146,0,0,1-1.146-1.146v-4.011h1.2a3.438,3.438,0,1,0,6.819.573,3.4,3.4,0,0,0-.057-.573h1.2V148.8Z" transform="translate(-132.761 -132.76)" fill="#333"/>
    </g>
  </g>
</svg>
