<svg xmlns="http://www.w3.org/2000/svg" width="25.214" height="25.213" viewBox="0 0 25.214 25.213">
  <g id="twitter" transform="translate(0)">
    <g id="Group_69" data-name="Group 69" transform="translate(0)">
      <g id="Group_68" data-name="Group 68">
        <path id="Path_30" data-name="Path 30" d="M162.42,163.3a4.761,4.761,0,0,1-1.5.573,2.367,2.367,0,0,0-1.719-.734,2.332,2.332,0,0,0-2.349,2.292,2.292,2.292,0,0,0,.063.527,6.71,6.71,0,0,1-4.848-2.418,2.263,2.263,0,0,0,.728,3.071,2.372,2.372,0,0,1-1.066-.292v.029a2.326,2.326,0,0,0,1.885,2.292,2.4,2.4,0,0,1-1.06.04,2.349,2.349,0,0,0,2.195,1.6,4.762,4.762,0,0,1-2.905,1,4.872,4.872,0,0,1-.573-.034,6.733,6.733,0,0,0,3.6,1.043,6.59,6.59,0,0,0,6.709-6.468q0-.058,0-.116v-.3a4.762,4.762,0,0,0,1.146-1.2,4.756,4.756,0,0,1-1.352.367A2.332,2.332,0,0,0,162.42,163.3Z" transform="translate(-143.824 -155.106)" fill="#333"/>
        <path id="Path_31" data-name="Path 31" d="M12.607,0A12.607,12.607,0,1,0,25.214,12.607,12.607,12.607,0,0,0,12.607,0Zm0,24.068A11.461,11.461,0,1,1,24.068,12.607,11.461,11.461,0,0,1,12.607,24.068Z" fill="#333"/>
      </g>
    </g>
  </g>
</svg>
