<svg xmlns="http://www.w3.org/2000/svg" width="23.913" height="20.884" viewBox="0 0 23.913 20.884">
  <path id="heart" d="M11.207,53.978a.656.656,0,0,1-.328-.088,39.211,39.211,0,0,1-5.39-3.878,22.232,22.232,0,0,1-3.738-4.006A8.449,8.449,0,0,1,0,41.2a6.939,6.939,0,0,1,1.77-4.647A5.8,5.8,0,0,1,6.09,34.594a5.994,5.994,0,0,1,5.117,3.035,5.994,5.994,0,0,1,5.117-3.035,5.835,5.835,0,0,1,4.152,1.767,6.841,6.841,0,0,1,1.937,4.847,8.614,8.614,0,0,1-1.783,4.8,22.52,22.52,0,0,1-3.733,4,39.346,39.346,0,0,1-5.36,3.878.657.657,0,0,1-.33.089Z" transform="translate(0.75 -33.844)" fill="none" stroke="#666" stroke-width="1.5"/>
</svg>
