<svg xmlns="http://www.w3.org/2000/svg" width="14.071" height="17" viewBox="0 0 14.071 17">
  <path id="shopping-bag_1_" data-name="shopping-bag (1)" d="M32.067,16.29,31.033,4.77a.61.61,0,0,0-.608-.556H28.292V3.252a3.252,3.252,0,1,0-6.5,0v.962H19.654a.61.61,0,0,0-.608.556L18.007,16.335a.61.61,0,0,0,.608.665h12.85a.61.61,0,0,0,.61-.61A.622.622,0,0,0,32.067,16.29ZM23.009,3.252a2.031,2.031,0,1,1,4.063,0v.962H23.009ZM19.283,15.78l.929-10.345h1.577V6.526a.61.61,0,1,0,1.22,0V5.434h4.063V6.526a.61.61,0,0,0,1.22,0V5.434h1.575L30.8,15.78H19.283Z" transform="translate(-18.005)" fill="#a3a3a3"/>
</svg>
