<svg xmlns="http://www.w3.org/2000/svg" width="20" height="17.297" viewBox="0 0 20 17.297">
  <g id="heart" transform="translate(0)">
    <path id="Path_133" data-name="Path 133" d="M14.566,0a5.207,5.207,0,0,1,3.706,1.577A6.107,6.107,0,0,1,20,5.9a7.689,7.689,0,0,1-1.59,4.282,20.107,20.107,0,0,1-3.332,3.573,35.11,35.11,0,0,1-4.783,3.46.586.586,0,0,1-.588,0,34.99,34.99,0,0,1-4.81-3.46,19.885,19.885,0,0,1-3.335-3.576A7.541,7.541,0,0,1,0,5.894,6.193,6.193,0,0,1,1.58,1.747,5.178,5.178,0,0,1,5.434,0,5.348,5.348,0,0,1,10,2.708,5.349,5.349,0,0,1,14.566,0ZM10,16.231l.019-.01A32.534,32.534,0,0,0,14.1,13.278L14.424,13a19.146,19.146,0,0,0,3.167-3.39A6.731,6.731,0,0,0,19,5.9a5.1,5.1,0,0,0-1.438-3.614,4.21,4.21,0,0,0-3-1.282A4.35,4.35,0,0,0,10.86,3.218L10,4.668l-.86-1.45A4.35,4.35,0,0,0,5.434,1,4.181,4.181,0,0,0,2.32,2.42,5.209,5.209,0,0,0,1,5.9,6.583,6.583,0,0,0,2.383,9.612,18.882,18.882,0,0,0,5.55,13a32.594,32.594,0,0,0,4.43,3.219L10,16.23Z" fill="#a3a3a3"/>
  </g>
</svg>
