<svg id="help-icon" xmlns="http://www.w3.org/2000/svg" width="25" height="25" viewBox="0 0 25 25">
  <path id="Path_135" data-name="Path 135" d="M9,6.44a6.056,6.056,0,0,1,.685-.55A4.986,4.986,0,0,1,12.58,5a4.522,4.522,0,0,1,1.465.23,3.5,3.5,0,0,1,1.165.65,2.993,2.993,0,0,1,.77,1.02,3.15,3.15,0,0,1,.28,1.35,3.452,3.452,0,0,1-.225,1.31,3.671,3.671,0,0,1-.57.965,4.458,4.458,0,0,1-.75.72l-.765.575a4.832,4.832,0,0,0-.615.54,1.047,1.047,0,0,0-.3.6l-.18,1.53H11.64l-.12-1.66a1.23,1.23,0,0,1,.17-.785,2.833,2.833,0,0,1,.55-.63,8.86,8.86,0,0,1,.75-.58,5.886,5.886,0,0,0,.765-.635,3.306,3.306,0,0,0,.6-.8,2.216,2.216,0,0,0,.24-1.065,1.762,1.762,0,0,0-.63-1.375,2.033,2.033,0,0,0-.685-.375,2.687,2.687,0,0,0-.845-.13,3.219,3.219,0,0,0-1.045.15,3.918,3.918,0,0,0-1.22.66.54.54,0,0,1-.305.15.435.435,0,0,1-.39-.23Zm1.95,11.95a1.27,1.27,0,0,1,.355-.89,1.223,1.223,0,0,1,.885-.37,1.21,1.21,0,0,1,.49.1,1.283,1.283,0,0,1,.67.67,1.263,1.263,0,0,1,0,.985,1.3,1.3,0,0,1-.27.4,1.215,1.215,0,0,1-.4.265,1.311,1.311,0,0,1-.98,0,1.16,1.16,0,0,1-.395-.265,1.26,1.26,0,0,1-.355-.89ZM12.5,25A12.5,12.5,0,1,1,25,12.5,12.5,12.5,0,0,1,12.5,25Zm0-1A11.5,11.5,0,1,0,1,12.5,11.5,11.5,0,0,0,12.5,24Z" fill="#a3a3a3"/>
</svg>
