<svg id="personal-details-icon" xmlns="http://www.w3.org/2000/svg" width="28.377" height="18.554" viewBox="0 0 28.377 18.554">
  <path id="Path_210" data-name="Path 210" d="M0,0H28.377V18.554H0ZM1.091,1.091V17.463H27.286V1.091Zm15.28,2.183h5.457V4.366H16.372Zm6.549,0h1.091V4.366H22.92ZM16.372,5.457h3.274V6.549H16.372Zm4.366,0H25.1V6.549H20.737ZM16.372,7.64h2.183V8.731H16.372Zm0,2.183H22.92v1.091H16.372ZM19.646,7.64H25.1V8.731H19.646Zm-6.549,0H15.28V9.823H13.1Zm3.274,4.366h3.274V13.1H16.372Zm0,2.183h4.366V15.28H16.372Zm5.457,0H25.1V15.28H21.829Zm-1.091-2.183h3.274V13.1H20.737Zm-7.64,0H15.28v2.183H13.1Zm0-8.731H15.28V5.457H13.1ZM4.366,6.821A2.552,2.552,0,0,1,7.094,4.093,2.552,2.552,0,0,1,9.823,6.821a3.914,3.914,0,0,1-.4,1.764,4.366,4.366,0,0,1,2.037,3.693c0,2.838-8.731,2.838-8.731,0A4.366,4.366,0,0,1,4.766,8.585a3.911,3.911,0,0,1-.4-1.763Zm1.4,2.464A3.274,3.274,0,0,0,3.82,12.279c0,1.382,6.549,1.382,6.549,0A3.274,3.274,0,0,0,8.426,9.286L7.778,9l.445-.552a2.6,2.6,0,0,0,.509-1.624A1.476,1.476,0,0,0,7.094,5.184,1.476,1.476,0,0,0,5.457,6.821a2.59,2.59,0,0,0,.509,1.624L6.411,9l-.648.288Z" fill="#a3a3a3"/>
</svg>
